<svg xmlns="http://www.w3.org/2000/svg" width="1440" viewBox="0 0 1440 810" height="810" version="1.0"><defs><clipPath id="a"><path d="M 0 0 L 1006 0 L 1006 802 L 0 802 Z M 0 0"/></clipPath><clipPath id="b"><path d="M 222.050781 -458.769531 L 1207.875 -110.605469 L 797.023438 1052.722656 L -188.800781 704.5625 Z M 222.050781 -458.769531"/></clipPath><clipPath id="c"><path d="M 222.050781 -458.769531 L 1207.875 -110.605469 L 797.023438 1052.722656 L -188.800781 704.5625 Z M 222.050781 -458.769531"/></clipPath><clipPath id="d"><path d="M 370 0 L 1440 0 L 1440 609 L 370 609 Z M 370 0"/></clipPath><clipPath id="e"><path d="M 1014.222656 786.871094 L 59.101562 221.324219 L 726.671875 -906.105469 L 1681.792969 -340.5625 Z M 1014.222656 786.871094"/></clipPath><clipPath id="f"><path d="M 1014.222656 786.871094 L 59.101562 221.324219 L 726.671875 -906.105469 L 1681.792969 -340.5625 Z M 1014.222656 786.871094"/></clipPath><clipPath id="g"><path d="M 0 0 L 434.890625 0 L 434.890625 316 L 0 316 Z M 0 0"/></clipPath></defs><g clip-path="url(#a)"><g clip-path="url(#b)"><g clip-path="url(#c)"><path fill="#38B6FF" d="M 990.261719 502.664062 C 936.839844 620.519531 824.980469 639.496094 710.136719 666.914062 C 652.449219 680.652344 601.386719 695.964844 547.613281 721.863281 C 499.472656 744.878906 452.402344 776.480469 400.75 790.558594 C 207.503906 843.894531 -62.457031 690.324219 -65.078125 476.238281 C -66.5 358.257812 4.488281 272.003906 75.167969 185.894531 C 146.542969 99.265625 172.960938 -22.738281 218.273438 -123.445312 C 265.894531 -229.238281 335.945312 -327.367188 461.246094 -332.105469 C 567.792969 -336.03125 677.449219 -278.324219 733.960938 -187.058594 C 769.804688 -129.507812 782.210938 -61.511719 807.417969 0.742188 C 829.40625 54.679688 857.097656 106.273438 888.894531 154.953125 C 925.976562 211.910156 973.871094 262.941406 994.421875 328.9375 C 1004.046875 359.785156 1006.359375 393.179688 1004.792969 425.203125 C 1004.175781 434.21875 991.171875 502.988281 990.261719 502.664062 C 985.644531 512.835938 989.886719 502.277344 990.261719 502.664062 Z M 990.261719 502.664062"/></g></g></g><g clip-path="url(#d)"><g clip-path="url(#e)"><g clip-path="url(#f)"><path fill="#38B6FF" d="M 412.09375 -372.8125 C 492.011719 -484.601562 612.433594 -481.355469 737.703125 -486.292969 C 800.621094 -488.738281 856.964844 -494.1875 918.308594 -510.101562 C 973.191406 -524.175781 1028.726562 -547.414062 1085.429688 -551.453125 C 1297.703125 -567.261719 1547.261719 -351.726562 1505.894531 -128.152344 C 1483.070312 -4.945312 1391.363281 70.308594 1300.007812 145.476562 C 1207.816406 221.042969 1155.171875 342.710938 1087.226562 438.308594 C 1015.832031 538.726562 922.652344 626.542969 791.164062 605.703125 C 679.378906 587.871094 577.046875 505.191406 536.984375 398.480469 C 511.5 331.152344 512.582031 257.757812 499.152344 187.714844 C 487.359375 126.996094 469.144531 67.554688 446.050781 10.296875 C 419.160156 -56.671875 379.785156 -119.691406 371.976562 -192.675781 C 368.304688 -226.792969 372.773438 -262.058594 380.996094 -295.097656 C 383.5 -304.363281 411.207031 -373.332031 412.09375 -372.8125 C 418.996094 -382.453125 412.402344 -372.328125 412.09375 -372.8125 Z M 412.09375 -372.8125"/></g></g></g><g clip-path="url(#g)"><path fill="#38B6FF" d="M 434.429688 65.972656 C 429.15625 127.101562 382.136719 153.25 335.121094 183.640625 C 311.496094 198.894531 291.085938 213.804688 271.128906 233.875 C 253.242188 251.765625 237.1875 273.324219 216.316406 287.777344 C 138.332031 342.136719 -6.617188 316.101562 -41.59375 220.800781 C -60.859375 168.273438 -42.742188 118.5 -24.738281 68.839844 C -6.503906 18.835938 -13.957031 -39.882812 -9.601562 -92.066406 C -5.011719 -146.882812 10.8125 -201.820312 66.085938 -223.722656 C 113.105469 -242.304688 171.246094 -233.816406 210.925781 -201.933594 C 236.039062 -181.863281 252.324219 -153.421875 273.421875 -129.566406 C 291.773438 -108.921875 312.300781 -90.230469 334.203125 -73.484375 C 359.777344 -53.875 389.246094 -38.621094 408.859375 -12.359375 C 418.03125 -0.0859375 424.339844 14.480469 428.695312 29.042969 C 429.84375 33.171875 434.890625 65.972656 434.429688 65.972656 C 433.972656 71.25 434.203125 65.859375 434.429688 65.972656 Z M 434.429688 65.972656"/></g></svg>