<svg xmlns="http://www.w3.org/2000/svg" width="1440" viewBox="0 0 1440 810" height="810" version="1.0"><defs><clipPath id="a"><path d="M -384.617188 332.433594 L 1367.476562 -392.125 L 1727.175781 477.683594 L -24.921875 1202.242188 Z M -384.617188 332.433594"/></clipPath><clipPath id="b"><path d="M -384.617188 332.433594 L 1367.476562 -392.125 L 1727.175781 477.683594 L -24.921875 1202.242188 Z M -384.617188 332.433594"/></clipPath></defs><g clip-path="url(#a)"><g clip-path="url(#b)"><path fill="#38B6FF" d="M 1685.5625 391.15625 C 1597.09375 466.542969 1536.683594 556.460938 1415.066406 565.503906 C 1318.09375 572.933594 1268.03125 558.515625 1184.636719 624.449219 C 1112.351562 681.703125 1099.128906 731.6875 996.421875 745.980469 C 938.492188 754.007812 871.679688 727.726562 814.144531 751.523438 C 740.917969 781.804688 712.71875 863.710938 643.890625 898.707031 C 564.890625 938.730469 493.140625 903.464844 413.265625 922.609375 C 324.296875 943.472656 291.433594 1033.84375 214.875 1072.855469 C 131.628906 1115.449219 39.207031 1104.253906 -56.925781 1111.742188 C -163.015625 854.210938 -269.597656 596.476562 -376.035156 339.09375 C -279.90625 331.605469 -187.628906 342.449219 -104.238281 300.207031 C -28.023438 261.339844 5.332031 171.171875 94.152344 149.960938 C 174.171875 131.164062 245.921875 166.429688 324.78125 126.058594 C 393.609375 91.0625 421.804688 9.15625 495.035156 -21.128906 C 552.570312 -44.921875 618.886719 -18.84375 677.3125 -26.667969 C 779.816406 -40.46875 793.386719 -90.597656 865.523438 -148.203125 C 948.917969 -214.136719 998.839844 -200.0625 1095.953125 -207.144531 C 1217.574219 -216.191406 1277.632812 -305.964844 1366.453125 -381.492188 C 1472.542969 -123.960938 1579.125 133.773438 1685.5625 391.15625 Z M 1685.5625 391.15625"/></g></g></svg>