<svg xmlns="http://www.w3.org/2000/svg" xmlns:xlink="http://www.w3.org/1999/xlink" width="375" viewBox="0 0 375 150" height="150" version="1.0"><defs><g id="a"><path d="M 27.015625 -27.328125 L 21.9375 -27.640625 L 21.9375 -16.859375 C 21.9375 -15.453125 22.15625 -14.4375 22.59375 -13.8125 C 23.039062 -13.195312 23.875 -12.890625 25.09375 -12.890625 C 26.320312 -12.890625 27.257812 -12.847656 27.90625 -12.765625 C 28.5625 -12.691406 29.253906 -12.445312 29.984375 -12.03125 C 31.179688 -11.351562 31.78125 -9.609375 31.78125 -6.796875 C 31.78125 -3.515625 31.050781 -1.507812 29.59375 -0.78125 C 28.8125 -0.414062 28.117188 -0.191406 27.515625 -0.109375 C 26.921875 -0.0351562 26.050781 0 24.90625 0 C 19.488281 0 15.375 -1.222656 12.5625 -3.671875 C 9.757812 -6.117188 8.359375 -10.253906 8.359375 -16.078125 L 8.359375 -27.640625 C 7.367188 -27.484375 6.300781 -27.40625 5.15625 -27.40625 C 4.007812 -27.40625 3.054688 -27.847656 2.296875 -28.734375 C 1.546875 -29.617188 1.171875 -31.128906 1.171875 -33.265625 C 1.171875 -35.398438 1.300781 -36.945312 1.5625 -37.90625 C 1.820312 -38.863281 2.1875 -39.550781 2.65625 -39.96875 C 3.488281 -40.644531 4.53125 -40.984375 5.78125 -40.984375 L 8.359375 -40.671875 L 8.359375 -48.71875 C 8.359375 -49.914062 8.394531 -50.800781 8.46875 -51.375 C 8.550781 -51.945312 8.800781 -52.570312 9.21875 -53.25 C 9.894531 -54.550781 11.894531 -55.203125 15.21875 -55.203125 C 18.757812 -55.203125 20.867188 -54.238281 21.546875 -52.3125 C 21.804688 -51.476562 21.9375 -50.148438 21.9375 -48.328125 L 21.9375 -40.671875 C 24.226562 -40.878906 25.957031 -40.984375 27.125 -40.984375 C 28.300781 -40.984375 29.1875 -40.941406 29.78125 -40.859375 C 30.382812 -40.785156 31.078125 -40.539062 31.859375 -40.125 C 33.210938 -39.445312 33.890625 -37.445312 33.890625 -34.125 C 33.890625 -30.84375 33.1875 -28.835938 31.78125 -28.109375 C 31 -27.742188 30.304688 -27.519531 29.703125 -27.4375 C 29.109375 -27.363281 28.210938 -27.328125 27.015625 -27.328125 Z M 27.015625 -27.328125"/></g><g id="b"><path d="M 29.828125 -36.78125 C 30.140625 -39.6875 32.195312 -41.140625 36 -41.140625 C 38.019531 -41.140625 39.523438 -40.984375 40.515625 -40.671875 C 41.503906 -40.359375 42.191406 -39.8125 42.578125 -39.03125 C 42.972656 -38.257812 43.207031 -37.570312 43.28125 -36.96875 C 43.363281 -36.375 43.40625 -35.476562 43.40625 -34.28125 L 43.40625 -6.953125 C 43.40625 -5.753906 43.363281 -4.851562 43.28125 -4.25 C 43.207031 -3.65625 42.988281 -2.96875 42.625 -2.1875 C 41.894531 -0.832031 40.113281 -0.15625 37.28125 -0.15625 C 34.445312 -0.15625 32.546875 -0.503906 31.578125 -1.203125 C 30.617188 -1.910156 30.0625 -2.941406 29.90625 -4.296875 C 27.976562 -1.535156 24.757812 -0.15625 20.25 -0.15625 C 15.75 -0.15625 11.570312 -2.210938 7.71875 -6.328125 C 3.875 -10.441406 1.953125 -15.21875 1.953125 -20.65625 C 1.953125 -26.09375 3.890625 -30.851562 7.765625 -34.9375 C 11.640625 -39.019531 15.894531 -41.0625 20.53125 -41.0625 C 22.300781 -41.0625 23.914062 -40.75 25.375 -40.125 C 26.832031 -39.5 27.847656 -38.914062 28.421875 -38.375 C 28.992188 -37.832031 29.460938 -37.300781 29.828125 -36.78125 Z M 15.609375 -20.53125 C 15.609375 -18.8125 16.285156 -17.257812 17.640625 -15.875 C 18.992188 -14.5 20.632812 -13.8125 22.5625 -13.8125 C 24.488281 -13.8125 26.085938 -14.515625 27.359375 -15.921875 C 28.640625 -17.328125 29.28125 -18.875 29.28125 -20.5625 C 29.28125 -22.257812 28.664062 -23.835938 27.4375 -25.296875 C 26.21875 -26.753906 24.578125 -27.484375 22.515625 -27.484375 C 20.460938 -27.484375 18.796875 -26.753906 17.515625 -25.296875 C 16.242188 -23.835938 15.609375 -22.25 15.609375 -20.53125 Z M 15.609375 -20.53125"/></g><g id="c"><path d="M 29.203125 -5.15625 C 27.222656 -2.550781 24.070312 -1.25 19.75 -1.25 C 15.425781 -1.25 11.378906 -3.238281 7.609375 -7.21875 C 3.835938 -11.195312 1.953125 -15.84375 1.953125 -21.15625 C 1.953125 -26.46875 3.847656 -31.125 7.640625 -35.125 C 11.441406 -39.132812 15.609375 -41.140625 20.140625 -41.140625 C 21.910156 -41.140625 23.523438 -40.8125 24.984375 -40.15625 C 26.441406 -39.507812 27.441406 -38.914062 27.984375 -38.375 C 28.535156 -37.832031 28.96875 -37.328125 29.28125 -36.859375 C 29.4375 -38.304688 29.96875 -39.40625 30.875 -40.15625 C 31.789062 -40.914062 33.265625 -41.296875 35.296875 -41.296875 C 37.328125 -41.296875 38.804688 -41.140625 39.734375 -40.828125 C 40.671875 -40.515625 41.332031 -39.984375 41.71875 -39.234375 C 42.113281 -38.484375 42.347656 -37.820312 42.421875 -37.25 C 42.503906 -36.675781 42.546875 -35.789062 42.546875 -34.59375 L 42.546875 -2.265625 C 42.546875 3.722656 40.460938 8.550781 36.296875 12.21875 C 32.140625 15.882812 27.457031 17.71875 22.25 17.71875 C 18.289062 17.71875 14.515625 16.753906 10.921875 14.828125 C 7.335938 12.910156 5.546875 11.171875 5.546875 9.609375 C 5.546875 7.578125 6.328125 5.78125 7.890625 4.21875 C 8.878906 3.125 9.644531 2.367188 10.1875 1.953125 C 10.738281 1.535156 11.375 1.328125 12.09375 1.328125 C 12.820312 1.328125 13.578125 1.640625 14.359375 2.265625 C 16.859375 4.191406 19.566406 5.15625 22.484375 5.15625 C 24.460938 5.15625 26.078125 4.375 27.328125 2.8125 C 28.578125 1.25 29.203125 -0.625 29.203125 -2.8125 Z M 15.296875 -21.109375 C 15.296875 -19.421875 15.957031 -17.898438 17.28125 -16.546875 C 18.613281 -15.191406 20.226562 -14.515625 22.125 -14.515625 C 24.03125 -14.515625 25.609375 -15.203125 26.859375 -16.578125 C 28.109375 -17.960938 28.734375 -19.472656 28.734375 -21.109375 C 28.734375 -22.753906 28.132812 -24.289062 26.9375 -25.71875 C 25.738281 -27.15625 24.125 -27.875 22.09375 -27.875 C 20.0625 -27.875 18.421875 -27.171875 17.171875 -25.765625 C 15.921875 -24.359375 15.296875 -22.804688 15.296875 -21.109375 Z M 15.296875 -21.109375"/></g><g id="d"><path d="M 3.125 -53.640625 C 3.125 -54.835938 3.160156 -55.734375 3.234375 -56.328125 C 3.316406 -56.929688 3.539062 -57.625 3.90625 -58.40625 C 4.632812 -59.8125 6.664062 -60.515625 10 -60.515625 C 13.164062 -60.515625 15.140625 -59.8125 15.921875 -58.40625 C 16.335938 -57.625 16.582031 -56.921875 16.65625 -56.296875 C 16.738281 -55.671875 16.78125 -54.757812 16.78125 -53.5625 L 16.78125 -17.40625 C 16.78125 -15.53125 16.9375 -14.34375 17.25 -13.84375 C 17.5625 -13.351562 18.25 -13.109375 19.3125 -13.109375 C 20.382812 -13.109375 21.101562 -13.070312 21.46875 -13 C 21.832031 -12.925781 22.273438 -12.707031 22.796875 -12.34375 C 23.835938 -11.664062 24.359375 -9.816406 24.359375 -6.796875 C 24.359375 -3.515625 23.835938 -1.507812 22.796875 -0.78125 C 21.441406 0.15625 18.210938 0.3125 13.109375 -0.3125 C 9.109375 -0.832031 6.507812 -2.160156 5.3125 -4.296875 C 3.851562 -6.847656 3.125 -10.90625 3.125 -16.46875 Z M 3.125 -53.640625"/></g><g id="e"><path d="M 1.953125 -20.53125 C 1.953125 -26.78125 4.132812 -31.929688 8.5 -35.984375 C 12.875 -40.046875 17.875 -42.078125 23.5 -42.078125 C 29.125 -42.078125 34.09375 -40.0625 38.40625 -36.03125 C 42.726562 -32 44.890625 -26.859375 44.890625 -20.609375 C 44.890625 -16.285156 43.769531 -12.445312 41.53125 -9.09375 C 39.300781 -5.738281 36.582031 -3.265625 33.375 -1.671875 C 30.175781 -0.0859375 26.859375 0.703125 23.421875 0.703125 C 19.984375 0.703125 16.648438 -0.140625 13.421875 -1.828125 C 10.203125 -3.523438 7.484375 -6.023438 5.265625 -9.328125 C 3.054688 -12.628906 1.953125 -16.363281 1.953125 -20.53125 Z M 18.265625 -14.9375 C 19.929688 -13.664062 21.625 -13.03125 23.34375 -13.03125 C 25.0625 -13.03125 26.78125 -13.679688 28.5 -14.984375 C 30.21875 -16.285156 31.078125 -18.210938 31.078125 -20.765625 C 31.078125 -23.316406 30.269531 -25.21875 28.65625 -26.46875 C 27.039062 -27.71875 25.296875 -28.34375 23.421875 -28.34375 C 21.546875 -28.34375 19.800781 -27.691406 18.1875 -26.390625 C 16.570312 -25.085938 15.765625 -23.171875 15.765625 -20.640625 C 15.765625 -18.117188 16.597656 -16.21875 18.265625 -14.9375 Z M 18.265625 -14.9375"/></g><g id="f"><path d="M 26 -41.140625 C 31.207031 -41.140625 35.539062 -39.148438 39 -35.171875 C 42.457031 -31.191406 44.1875 -26.335938 44.1875 -20.609375 L 44.1875 -6.875 C 44.1875 -5.675781 44.144531 -4.773438 44.0625 -4.171875 C 43.988281 -3.578125 43.769531 -2.914062 43.40625 -2.1875 C 42.675781 -0.78125 40.648438 -0.078125 37.328125 -0.078125 C 33.628906 -0.078125 31.492188 -1.039062 30.921875 -2.96875 C 30.609375 -3.851562 30.453125 -5.179688 30.453125 -6.953125 L 30.453125 -20.6875 C 30.453125 -22.820312 29.835938 -24.488281 28.609375 -25.6875 C 27.390625 -26.882812 25.75 -27.484375 23.6875 -27.484375 C 21.632812 -27.484375 19.96875 -26.859375 18.6875 -25.609375 C 17.414062 -24.359375 16.78125 -22.71875 16.78125 -20.6875 L 16.78125 -6.875 C 16.78125 -5.675781 16.738281 -4.773438 16.65625 -4.171875 C 16.582031 -3.578125 16.335938 -2.914062 15.921875 -2.1875 C 15.242188 -0.78125 13.242188 -0.078125 9.921875 -0.078125 C 6.640625 -0.078125 4.632812 -0.78125 3.90625 -2.1875 C 3.539062 -2.96875 3.316406 -3.65625 3.234375 -4.25 C 3.160156 -4.851562 3.125 -5.753906 3.125 -6.953125 L 3.125 -34.59375 C 3.125 -35.738281 3.160156 -36.609375 3.234375 -37.203125 C 3.316406 -37.804688 3.566406 -38.46875 3.984375 -39.1875 C 4.710938 -40.488281 6.71875 -41.140625 10 -41.140625 C 13.164062 -41.140625 15.113281 -40.539062 15.84375 -39.34375 C 16.363281 -38.46875 16.625 -37.40625 16.625 -36.15625 C 16.832031 -36.519531 17.300781 -37.039062 18.03125 -37.71875 C 18.757812 -38.394531 19.460938 -38.9375 20.140625 -39.34375 C 21.910156 -40.539062 23.863281 -41.140625 26 -41.140625 Z M 26 -41.140625"/></g></defs><g fill="#FFF"><use x="13.825" y="103.125" xmlns:xlink="http://www.w3.org/1999/xlink" xlink:href="#a" xlink:type="simple" xlink:actuate="onLoad" xlink:show="embed"/></g><g fill="#FFF"><use x="50.049" y="103.125" xmlns:xlink="http://www.w3.org/1999/xlink" xlink:href="#b" xlink:type="simple" xlink:actuate="onLoad" xlink:show="embed"/></g><g fill="#FFF"><use x="97.751" y="103.125" xmlns:xlink="http://www.w3.org/1999/xlink" xlink:href="#c" xlink:type="simple" xlink:actuate="onLoad" xlink:show="embed"/></g><g fill="#FFF"><use x="144.593" y="103.125" xmlns:xlink="http://www.w3.org/1999/xlink" xlink:href="#b" xlink:type="simple" xlink:actuate="onLoad" xlink:show="embed"/></g><g fill="#FFF"><use x="192.294" y="103.125" xmlns:xlink="http://www.w3.org/1999/xlink" xlink:href="#d" xlink:type="simple" xlink:actuate="onLoad" xlink:show="embed"/></g><g fill="#FFF"><use x="218.994" y="103.125" xmlns:xlink="http://www.w3.org/1999/xlink" xlink:href="#e" xlink:type="simple" xlink:actuate="onLoad" xlink:show="embed"/></g><g fill="#FFF"><use x="267.007" y="103.125" xmlns:xlink="http://www.w3.org/1999/xlink" xlink:href="#f" xlink:type="simple" xlink:actuate="onLoad" xlink:show="embed"/></g><g fill="#FFF"><use x="315.489" y="103.125" xmlns:xlink="http://www.w3.org/1999/xlink" xlink:href="#c" xlink:type="simple" xlink:actuate="onLoad" xlink:show="embed"/></g></svg>